<svg width="512" height="512" viewBox="0 0 512 512" fill="none" xmlns="http://www.w3.org/2000/svg" xmlns:xlink="http://www.w3.org/1999/xlink" class=""><rect id="r9" width="512" height="512" x="0" y="0" rx="128" fill="url(#ra)" stroke="#FFFFFF" stroke-width="0" stroke-opacity="100%" paint-order="stroke"></rect><clipPath id="clip"><use xlink:href="#r9"></use></clipPath><defs><radialGradient id="ra" cx="50%" cy="50%" r="100%" fx="50%" fy="50%" gradientUnits="objectBoundingBox"><stop stop-color="#FFEFD6"></stop><stop offset="1" stop-color="#FFEFD6"></stop></radialGradient><radialGradient id="rb" cx="0" cy="0" r="1" gradientUnits="userSpaceOnUse" gradientTransform="translate(256) rotate(90) scale(512)"><stop stop-color="white"></stop><stop offset="1" stop-color="white" stop-opacity="0"></stop></radialGradient></defs><svg xmlns="http://www.w3.org/2000/svg" fill="none" viewBox="0 0 16 16" width="352" height="352" x="80" y="80" alignment-baseline="middle" style="color: rgb(244, 112, 47);"><path stroke="currentColor" stroke-linecap="round" stroke-linejoin="round" stroke-width="1.5" d="M1.75 10.656V8.213c0-3.57 2.634-6.463 5.882-6.463h.736c3.248 0 5.882 2.894 5.882 6.463v2.443M2.246 13.54l1 .584a1 1 0 0 0 1.504-.864V9.25a1 1 0 0 0-1-1h-1a1 1 0 0 0-1 1v3.426a1 1 0 0 0 .496.863Zm10.508.584 1-.584a1 1 0 0 0 .496-.863V9.25a1 1 0 0 0-1-1h-1a1 1 0 0 0-1 1v4.009a1 1 0 0 0 1.504.864Z"></path></svg></svg>